<svg width="18" height="18" viewBox="0 0 18 18" fill="none" xmlns="http://www.w3.org/2000/svg">
<path d="M9.00009 17.3333C10.0946 17.3347 11.1787 17.1197 12.1899 16.7009C13.2011 16.282 14.1196 15.6674 14.8926 14.8925C15.6675 14.1195 16.2821 13.201 16.701 12.1898C17.1198 11.1786 17.3348 10.0945 17.3334 9C17.3348 7.90545 17.1198 6.82142 16.701 5.8102C16.2821 4.79898 15.6675 3.88048 14.8926 3.1075C14.1196 2.33256 13.2011 1.718 12.1899 1.29913C11.1787 0.880251 10.0946 0.665313 9.00009 0.666663C7.90554 0.665313 6.82152 0.880251 5.81029 1.29913C4.79907 1.718 3.88058 2.33256 3.10759 3.1075C2.33265 3.88048 1.7181 4.79898 1.29922 5.8102C0.880342 6.82142 0.665405 7.90545 0.666754 9C0.665405 10.0945 0.880342 11.1786 1.29922 12.1898C1.7181 13.201 2.33265 14.1195 3.10759 14.8925C3.88058 15.6674 4.79907 16.282 5.81029 16.7009C6.82152 17.1197 7.90554 17.3347 9.00009 17.3333Z" stroke="#177B8F" stroke-width="2" stroke-linejoin="round"/>
<path d="M5.66675 9L8.16675 11.5L13.1667 6.5" stroke="#177B8F" stroke-width="2" stroke-linecap="round" stroke-linejoin="round"/>
</svg>
