<svg width="19" height="22" viewBox="0 0 19 22" fill="none" xmlns="http://www.w3.org/2000/svg">
<path d="M18.1502 14.8989C17.3826 12.9357 15.9988 11.3789 14.2542 10.5165C13.0096 9.90008 11.5936 10.1902 10.6478 11.2537C10.5101 11.4086 10.3236 11.4921 10.1229 11.4888C9.2914 11.4768 8.6058 10.7055 8.5946 9.76947C8.5917 9.54312 8.6659 9.33331 8.8041 9.1784C9.7494 8.11381 10.0062 6.52193 9.4594 5.12221C8.6928 3.1601 7.3095 1.60332 5.5634 0.738647C4.3188 0.120122 2.9028 0.412397 1.9574 1.47687C0.0842984 3.58411 -0.506002 6.78113 0.454398 9.61996C2.1707 14.6979 5.7435 18.7166 10.2552 20.6459C11.0594 20.9898 11.8953 21.1567 12.722 21.1567C14.491 21.1567 16.2176 20.3909 17.4945 18.9551C18.4402 17.8916 18.6976 16.2996 18.1502 14.8989ZM16.0804 17.3642C14.7635 18.8463 12.7567 19.3077 10.9661 18.5431C6.9876 16.8413 3.8372 13.2983 2.3235 8.8202C1.6428 6.80746 2.0545 4.54981 3.3714 3.06773C3.6028 2.80741 3.911 2.67117 4.2308 2.67117C4.4066 2.67117 4.5863 2.71291 4.7581 2.79751C6.0442 3.43471 7.0633 4.58165 7.6282 6.0275C7.8411 6.57245 7.7473 7.18433 7.3894 7.58753C6.8743 8.16646 6.5847 8.97286 6.5945 9.80018C6.6204 11.9425 8.1912 13.7091 10.0945 13.7388C10.823 13.7355 11.5471 13.4246 12.0623 12.8445C12.4217 12.4425 12.9656 12.3381 13.4495 12.5753C14.7347 13.2114 15.7537 14.3585 16.3191 15.8042C16.532 16.3491 16.4388 16.961 16.0804 17.3642Z" fill="#34AA93"/>
</svg>
